<mxfile host="app.diagrams.net" modified="2023-04-18T23:40:54.198Z" agent="Mozilla/5.0 (Windows NT 10.0; Win64; x64) AppleWebKit/537.36 (KHTML, like Gecko) Chrome/110.0.0.0 YaBrowser/23.3.1.895 Yowser/2.5 Safari/537.36" etag="H7AjS6oMTCrclZ99KGnz" version="21.1.8" type="device">
  <diagram name="Страница 1" id="q_yW7ON8BT4Ymfcw2zIR">
    <mxGraphModel dx="1158" dy="688" grid="1" gridSize="10" guides="1" tooltips="1" connect="1" arrows="1" fold="1" page="1" pageScale="1" pageWidth="827" pageHeight="1169" math="0" shadow="0">
      <root>
        <mxCell id="0" />
        <mxCell id="1" parent="0" />
        <mxCell id="Fw2Q04BphbdcADDg1hfS-1" value="Библиотека классов &lt;br&gt;Lib" style="rounded=0;whiteSpace=wrap;html=1;" vertex="1" parent="1">
          <mxGeometry x="60" y="170" width="90" height="60" as="geometry" />
        </mxCell>
        <mxCell id="Fw2Q04BphbdcADDg1hfS-2" value="DB" style="rounded=0;whiteSpace=wrap;html=1;" vertex="1" parent="1">
          <mxGeometry x="260" y="90" width="70" height="50" as="geometry" />
        </mxCell>
        <mxCell id="Fw2Q04BphbdcADDg1hfS-3" value="Клиентская часть приложения" style="rounded=0;whiteSpace=wrap;html=1;" vertex="1" parent="1">
          <mxGeometry x="190" y="320" width="130" height="50" as="geometry" />
        </mxCell>
        <mxCell id="Fw2Q04BphbdcADDg1hfS-4" value="Серверная часть приложения" style="rounded=0;whiteSpace=wrap;html=1;" vertex="1" parent="1">
          <mxGeometry x="440" y="190" width="130" height="50" as="geometry" />
        </mxCell>
        <mxCell id="Fw2Q04BphbdcADDg1hfS-6" value="" style="endArrow=classic;html=1;rounded=0;exitX=0.75;exitY=0;exitDx=0;exitDy=0;entryX=0;entryY=0.5;entryDx=0;entryDy=0;dashed=1;startArrow=block;startFill=1;" edge="1" parent="1" source="Fw2Q04BphbdcADDg1hfS-3" target="Fw2Q04BphbdcADDg1hfS-4">
          <mxGeometry width="50" height="50" relative="1" as="geometry">
            <mxPoint x="160" y="290" as="sourcePoint" />
            <mxPoint x="210" y="240" as="targetPoint" />
          </mxGeometry>
        </mxCell>
        <mxCell id="Fw2Q04BphbdcADDg1hfS-7" value="" style="endArrow=classic;html=1;rounded=0;exitX=0.75;exitY=1;exitDx=0;exitDy=0;dashed=1;" edge="1" parent="1" source="Fw2Q04BphbdcADDg1hfS-1" target="Fw2Q04BphbdcADDg1hfS-3">
          <mxGeometry width="50" height="50" relative="1" as="geometry">
            <mxPoint x="298" y="330" as="sourcePoint" />
            <mxPoint x="450" y="225" as="targetPoint" />
          </mxGeometry>
        </mxCell>
        <mxCell id="Fw2Q04BphbdcADDg1hfS-8" value="" style="endArrow=classic;html=1;rounded=0;exitX=1;exitY=0.5;exitDx=0;exitDy=0;entryX=0;entryY=0.25;entryDx=0;entryDy=0;dashed=1;" edge="1" parent="1" source="Fw2Q04BphbdcADDg1hfS-1" target="Fw2Q04BphbdcADDg1hfS-4">
          <mxGeometry width="50" height="50" relative="1" as="geometry">
            <mxPoint x="308" y="340" as="sourcePoint" />
            <mxPoint x="460" y="235" as="targetPoint" />
          </mxGeometry>
        </mxCell>
        <mxCell id="Fw2Q04BphbdcADDg1hfS-9" value="" style="endArrow=classic;html=1;rounded=0;exitX=0.379;exitY=0.016;exitDx=0;exitDy=0;entryX=1;entryY=0.75;entryDx=0;entryDy=0;dashed=1;exitPerimeter=0;startArrow=classic;startFill=0;" edge="1" parent="1" source="Fw2Q04BphbdcADDg1hfS-4" target="Fw2Q04BphbdcADDg1hfS-2">
          <mxGeometry width="50" height="50" relative="1" as="geometry">
            <mxPoint x="160" y="210" as="sourcePoint" />
            <mxPoint x="450" y="213" as="targetPoint" />
          </mxGeometry>
        </mxCell>
      </root>
    </mxGraphModel>
  </diagram>
</mxfile>
